<svg width="262" height="98" viewBox="0 0 262 98" fill="none" xmlns="http://www.w3.org/2000/svg">
<path d="M55.6158 7.9359L47.1678 6.2719L54.5278 -0.000106812H55.6798L59.8398 30.2719L58.1758 30.5919L45.6318 9.4079L49.9198 14.7199C47.0185 11.9466 43.8611 9.81322 40.4478 8.31989C37.0345 6.78389 33.5145 6.01589 29.8878 6.01589C24.4265 6.01589 20.4371 7.29589 17.9198 9.8559C15.4451 12.4159 14.2078 15.7652 14.2078 19.9039C14.2078 22.7626 14.8265 25.1519 16.0638 27.0719C17.3438 28.9919 19.0718 30.6132 21.2478 31.9359C23.4665 33.2586 25.9838 34.4319 28.7998 35.4559C31.6158 36.4372 34.5385 37.4612 37.5678 38.5279C40.6398 39.5946 43.6905 40.8106 46.7198 42.1759C49.7491 43.5412 52.5011 45.2906 54.9758 47.4239C57.4505 49.5146 59.4345 52.1599 60.9278 55.3599C62.4212 58.5172 63.1678 62.4639 63.1678 67.1999C63.1678 73.0879 61.5891 78.2506 58.4318 82.6879C55.2745 87.1252 51.0505 90.5812 45.7598 93.0559C40.5118 95.5306 34.6878 96.7679 28.2878 96.7679C23.8505 96.7679 19.8611 96.4692 16.3198 95.8719C12.8211 95.2746 9.17315 94.2292 5.37581 92.7359L-0.000187397 67.7119H1.91981L18.8158 93.9519L8.31981 86.9119C11.9891 89.0452 15.2958 90.6879 18.2398 91.8399C21.1838 92.9919 24.2985 93.5679 27.5838 93.5679C32.7038 93.5679 37.0131 92.7999 40.5118 91.2639C44.0105 89.7279 46.6558 87.5519 48.4478 84.7359C50.2398 81.8772 51.1358 78.4639 51.1358 74.4959C51.1358 70.8266 50.3465 67.7972 48.7678 65.4079C47.2318 63.0186 45.2051 61.0559 42.6878 59.5199C40.1705 57.9412 37.3758 56.5759 34.3038 55.4239C31.2745 54.2719 28.2665 53.1412 25.2798 52.0319C22.2505 50.8799 19.3918 49.6639 16.7038 48.3839C14.0158 47.0612 11.6265 45.5039 9.53581 43.7119C7.48781 41.9199 5.84515 39.7439 4.60781 37.1839C3.41315 34.5812 2.81581 31.4666 2.81581 27.8399C2.81581 22.5919 4.07448 18.0692 6.59181 14.2719C9.15181 10.4746 12.7358 7.53056 17.3438 5.4399C21.9518 3.34923 27.3918 2.30389 33.6638 2.30389C37.8025 2.30389 41.5785 2.75189 44.9918 3.6479C48.4478 4.5439 51.9891 5.97323 55.6158 7.9359ZM123.6 86.1439L140.816 66.2399H142.672L135.696 97.2799H134.352L128.144 95.2959H76.0478V94.0159L101.712 66.1119C106.106 61.2906 109.498 56.8106 111.888 52.6719C114.277 48.4906 115.941 44.6506 116.88 41.1519C117.861 37.6532 118.352 34.5172 118.352 31.7439C118.352 26.3679 116.645 22.0799 113.232 18.8799C109.818 15.6799 105.402 14.0799 99.9838 14.0799C96.3571 14.0799 93.0291 14.7199 89.9998 15.9999C87.0131 17.2799 84.4105 19.3492 82.1918 22.2079C79.9731 25.0666 78.2238 28.8639 76.9438 33.5999L74.3198 33.0239C76.3678 23.4239 80.2505 15.9146 85.9678 10.4959C91.6851 5.07723 98.8105 2.3679 107.344 2.3679C112.762 2.3679 117.52 3.3919 121.616 5.4399C125.754 7.44523 128.997 10.2826 131.344 13.9519C133.69 17.6212 134.864 21.9732 134.864 27.0079C134.864 29.6959 134.501 32.3626 133.776 35.0079C133.05 37.6532 131.728 40.4692 129.808 43.4559C127.93 46.4426 125.242 49.7706 121.744 53.4399C118.288 57.0666 113.829 61.2266 108.368 65.9199L87.9518 84.7359L89.4238 81.2799H131.856L123.6 86.1439ZM174.879 41.0879V91.5199L183.071 93.5039V95.2959H151.455V93.5039L159.839 91.5199V42.0479C159.156 41.4932 158.175 40.7252 156.895 39.7439C155.615 38.7626 153.695 37.3759 151.135 35.5839V34.2399L174.367 27.7759H174.879V41.0879ZM214.175 47.8079V91.5199L222.303 93.5039V95.2959H190.943V93.5039L199.135 91.5199V50.0479C199.135 47.5732 198.708 45.5466 197.855 43.9679C197.044 42.3466 195.785 41.1306 194.079 40.3199C192.372 39.5092 190.175 39.1039 187.487 39.1039C184.799 39.1039 182.196 39.4666 179.679 40.1919C177.161 40.9172 174.943 41.7492 173.023 42.6879L172.447 41.0879C175.604 38.3999 178.335 36.2239 180.639 34.5599C182.943 32.8959 184.991 31.6159 186.783 30.7199C188.575 29.8239 190.303 29.2266 191.967 28.9279C193.631 28.6292 195.423 28.4799 197.343 28.4799C201.225 28.4799 204.404 29.1839 206.879 30.5919C209.353 31.9572 211.188 34.0692 212.383 36.9279C213.577 39.7866 214.175 43.4132 214.175 47.8079ZM253.407 47.8079V91.5199L261.855 93.5039V95.2959H230.175V93.5039L238.431 91.5199V50.0479C238.431 47.5732 238.004 45.5466 237.151 43.9679C236.34 42.3466 235.081 41.1306 233.375 40.3199C231.668 39.5092 229.471 39.1039 226.783 39.1039C224.095 39.1039 221.471 39.4666 218.911 40.1919C216.393 40.9172 214.196 41.7492 212.319 42.6879L211.679 41.0879C214.879 38.3999 217.609 36.2239 219.871 34.5599C222.175 32.8959 224.223 31.6159 226.015 30.7199C227.849 29.8239 229.599 29.2266 231.263 28.9279C232.927 28.6292 234.697 28.4799 236.575 28.4799C242.42 28.4799 246.687 30.0586 249.375 33.2159C252.063 36.3306 253.407 41.1946 253.407 47.8079Z" fill="black"/>
</svg>
